<?xml version="1.0" encoding="UTF-8" standalone="no"?>
<!-- Created with Inkscape (http://www.inkscape.org/) -->

<svg
   width="67mm"
   height="52mm"
   viewBox="0 0 67 52"
   version="1.1"
   id="svg1"
   inkscape:version="1.3.2 (091e20e, 2023-11-25, custom)"
   sodipodi:docname="лого.svg"
   xmlns:inkscape="http://www.inkscape.org/namespaces/inkscape"
   xmlns:sodipodi="http://sodipodi.sourceforge.net/DTD/sodipodi-0.dtd"
   xmlns:xlink="http://www.w3.org/1999/xlink"
   xmlns="http://www.w3.org/2000/svg"
   xmlns:svg="http://www.w3.org/2000/svg">
  <sodipodi:namedview
     id="namedview1"
     pagecolor="#ffffff"
     bordercolor="#000000"
     borderopacity="0.25"
     inkscape:showpageshadow="2"
     inkscape:pageopacity="0.0"
     inkscape:pagecheckerboard="0"
     inkscape:deskcolor="#d1d1d1"
     inkscape:document-units="mm"
     inkscape:zoom="1.4142136"
     inkscape:cx="379.36278"
     inkscape:cy="135.41094"
     inkscape:window-width="1920"
     inkscape:window-height="1001"
     inkscape:window-x="-9"
     inkscape:window-y="-9"
     inkscape:window-maximized="1"
     inkscape:current-layer="layer1" />
  <defs
     id="defs1">
    <linearGradient
       id="linearGradient6"
       inkscape:collect="always">
      <stop
         style="stop-color:#bf5555;stop-opacity:1;"
         offset="0"
         id="stop6" />
      <stop
         style="stop-color:#ffe347;stop-opacity:1;"
         offset="1"
         id="stop7" />
    </linearGradient>
    <linearGradient
       id="linearGradient3"
       inkscape:collect="always">
      <stop
         style="stop-color:#ff8e17;stop-opacity:1;"
         offset="0"
         id="stop3" />
      <stop
         style="stop-color:#18e6c8;stop-opacity:1;"
         offset="1"
         id="stop4" />
    </linearGradient>
    <linearGradient
       id="linearGradient1"
       inkscape:collect="always">
      <stop
         style="stop-color:#ff9c15;stop-opacity:1;"
         offset="0"
         id="stop1" />
      <stop
         style="stop-color:#a2ffa8;stop-opacity:1;"
         offset="1"
         id="stop2" />
    </linearGradient>
    <linearGradient
       inkscape:collect="always"
       xlink:href="#linearGradient1"
       id="linearGradient2"
       x1="88.931435"
       y1="97.306923"
       x2="89.216095"
       y2="73.204597"
       gradientUnits="userSpaceOnUse"
       gradientTransform="translate(-52.101088,-73.556904)" />
    <linearGradient
       inkscape:collect="always"
       xlink:href="#linearGradient3"
       id="linearGradient4"
       x1="53.007118"
       y1="78.192642"
       x2="70.183052"
       y2="118.29987"
       gradientUnits="userSpaceOnUse"
       gradientTransform="translate(-52.010649,-74.461289)" />
    <linearGradient
       inkscape:collect="always"
       xlink:href="#linearGradient6"
       id="linearGradient7"
       x1="108.17437"
       y1="75.211693"
       x2="103.68115"
       y2="95.043091"
       gradientUnits="userSpaceOnUse"
       gradientTransform="translate(-52.010649,-74.461289)" />
  </defs>
  <g
     inkscape:label="Слой 1"
     inkscape:groupmode="layer"
     id="layer1">
    <path
       style="fill:none;stroke:url(#linearGradient4);stroke-width:1.065;stroke-dasharray:none;stroke-opacity:1"
       d="M 23.234172,4.0393201 C 9.8477687,29.763691 -0.21831681,43.629781 4.7847212,3.6775661 l -3.61754,47.2088949 c 0.359201,-31.718856 9.2480058,-31.533668 20.2582218,0.36175"
       id="path1"
       sodipodi:nodetypes="cccc" />
    <path
       style="fill:url(#linearGradient2);stroke:none;stroke-width:0.264583;stroke-opacity:1"
       d="M 42.294752,-0.05784339 C 42.237352,3.6129241 47.735951,7.4299041 39.491155,10.885215 36.194571,41.882361 38.315133,54.157551 34.538985,10.822205 26.520953,7.6527391 32.052833,3.4961311 31.984763,-0.10306239 34.793412,9.9330431 37.802285,12.276777 42.294752,-0.05784339 Z"
       id="path2"
       sodipodi:nodetypes="ccccc" />
    <ellipse
       style="fill:#bf8b55;fill-opacity:1;stroke:none;stroke-width:0.264583;stroke-opacity:1"
       id="path3"
       cx="37.2631"
       cy="44.996693"
       rx="4.2206783"
       ry="4.2658978" />
    <path
       style="fill:#cb26aa;fill-opacity:1;stroke:none;stroke-width:0.264583;stroke-opacity:1"
       d="m 40.41261,42.134941 c -1.665261,2.19455 -2.592505,4.71844 -3.107045,7.12604 -0.454457,-2.46429 -1.529443,-4.88399 -3.096074,-7.25394 1.991858,2.11442 4.041166,2.69006 6.203119,0.1279 z"
       id="path4"
       sodipodi:nodetypes="cccc" />
    <path
       style="fill:url(#linearGradient7);fill-opacity:1;stroke:none;stroke-width:1.266;stroke-dasharray:none;stroke-opacity:1"
       d="m 56.277861,49.153331 c 1.1601,-6.95695 1.66628,-22.12825 10.21955,-39.6120619 0.56115,-1.147058 -2.93048,-7.332268 -3.11745,-7.477429 -0.18696,-0.145162 -1.94662,6.282821 -2.70295,6.342495 -1.19316,0.09414 -3.27393,-7.3346035 -3.61279,-7.3246185 -0.33885,0.01 -1.7854,7.3506095 -2.90857,7.2104625 -0.8914,-0.111227 -2.99361,-5.918338 -3.0828,-5.859147 -0.10932,0.07254 -4.504184,5.382679 -3.459845,7.245449 9.675865,17.2586699 6.204675,33.2704099 8.936175,39.3844099"
       id="path5"
       sodipodi:nodetypes="cszszsssc" />
  </g>
</svg>
